<?xml version="1.0" encoding="UTF-8" standalone="no"?>
<svg
   xmlns:dc="http://purl.org/dc/elements/1.1/"
   xmlns:cc="http://creativecommons.org/ns#"
   xmlns:rdf="http://www.w3.org/1999/02/22-rdf-syntax-ns#"
   xmlns:svg="http://www.w3.org/2000/svg"
   xmlns="http://www.w3.org/2000/svg"
   viewBox="0 0 168 58"
   height="58"
   width="168"
   id="svg3810"
   version="1.1">
  <metadata
     id="metadata3816">
    <rdf:RDF>
      <cc:Work
         rdf:about="">
        <dc:format>image/svg+xml</dc:format>
        <dc:type
           rdf:resource="http://purl.org/dc/dcmitype/StillImage" />
        <dc:title></dc:title>
      </cc:Work>
    </rdf:RDF>
  </metadata>
  <defs
     id="defs3814" />
  <path
     id="path4650"
     d="m 159.26696,8.4140969 c 4.66037,2.3238591 -0.23419,4.6854231 -1.03612,7.0308371 l 4.51453,-0.370044 c 1.42765,0.649688 2.49993,2.017144 0.14802,3.330397 -3.39331,1.894757 -5.00514,1.59666 -7.40088,1.998237 -4.40555,6.649052 -7.19468,12.459958 -6.29075,16.355947 2.86982,-1.879143 5.0902,-4.894799 7.17886,-8.140969 1.41757,-0.495318 2.18409,0.125452 2.22026,1.998238 -3.24751,4.708481 -5.05771,11.768914 -12.35947,9.843172 -3.1731,-4.10763 -2.80765,-9.837096 3.47841,-18.280176 l -2.5903,0.222026 c -1.13498,-1.118325 -1.50245,-2.36457 0.8881,-4.070484 5.14939,-0.662019 7.69507,-6.242148 11.24934,-9.9171811 z"
     style="display:inline;fill:#2ca5fa;fill-opacity:1;stroke:#000000;stroke-width:0;stroke-linecap:butt;stroke-linejoin:miter;stroke-miterlimit:4;stroke-dasharray:none;stroke-opacity:1" />
  <path
     id="path4652"
     d="m 115.56055,19.841797 c -1.37771,-0.142096 -3.28414,0.636889 -5.97657,2.78125 -6.12002,6.376813 -6.96141,12.145731 -5.86132,17.689453 2.54683,2.822216 5.09379,0.102375 7.64062,-2.513672 0.44654,2.135175 1.61109,3.553289 3.45313,4.292969 3.16243,0.25153 3.49611,-1.147492 3.34961,-2.826172 -5.35678,-2.323273 -0.9077,-8.149512 1.04687,-13.083984 -0.53112,-3.30649 -1.35616,-6.103018 -3.65234,-6.339844 z m -0.84766,3.933594 c -1.09939,5.962835 -4.11148,9.466661 -7.11719,12.978515 -0.65537,-3.720571 1.14356,-9.487511 7.11719,-12.978515 z"
     style="fill:#2ca5fa;fill-opacity:1;stroke:#000000;stroke-width:0;stroke-linecap:butt;stroke-linejoin:miter;stroke-miterlimit:4;stroke-dasharray:none;stroke-opacity:1" />
  <path
     id="path4630"
     d="M 38.410573,43.642291 33.081938,11.818502 27.013216,11.744493 20.426432,33.429075 13.173568,11.596476 6.5867841,11.744493 1.4061674,43.198238 h 6.5127753 l 3.4044053,-19.686344 5.550661,19.612335 6.068722,-0.222026 5.994714,-18.576212 3.115986,19.047178 z"
     style="display:inline;fill:#fdffff;fill-opacity:1;stroke:#000000;stroke-width:0;stroke-linecap:butt;stroke-linejoin:miter;stroke-miterlimit:4;stroke-dasharray:none;stroke-opacity:1" />
  <path
     id="path4644"
     d="m 95.767801,16.448287 c -0.05598,1.747993 0.0093,3.421331 3.506253,2.982932 C 104.18026,15.435972 112.44972,5.0297479 103.30363,-0.35032703 91.239454,-0.14757037 63.553682,38.79127 80.743612,44.752423 c 8.988222,3.116951 15.966535,-8.046894 20.722468,-16.503965 -0.25909,-1.174815 -0.92077,-1.8464 -2.294274,-1.628194 -4.450477,6.251337 -8.838408,12.700734 -14.917074,13.79614 C 81.482233,40.104355 81.365235,36.074603 81.324133,31.938598 85.136916,18.416044 92.426901,9.7993283 103.30363,3.1559258 106.7693,6.7003387 99.903243,11.776764 95.767801,16.448287 Z"
     style="fill:#2ca5fa;stroke:#000000;stroke-width:0;stroke-linecap:butt;stroke-linejoin:miter;stroke-miterlimit:4;stroke-dasharray:none;stroke-opacity:1;fill-opacity:1" />
  <ellipse
     ry="5.5472059"
     rx="5.3378773"
     cy="27.752028"
     cx="52.646122"
     id="path4634"
     style="fill:#2ca5fa;fill-opacity:1" />
  <path
     id="path4648"
     d="m 128.94637,21.158179 c -5.3897,7.420595 -7.77888,14.241087 -9.00112,20.828189 l 2.72127,0.104664 c 2.65307,-4.39114 4.36073,-8.647221 8.7918,-13.292362 -0.71996,3.965228 2.45351,3.838012 6.07052,3.244593 3.61376,-2.462951 5.14125,-4.444454 5.12855,-6.070528 -2.47367,-0.576182 -4.47419,1.213374 -6.69851,1.883957 1.87441,-1.709516 3.96403,-3.419033 4.50056,-5.128549 -0.60763,-1.097523 -1.15648,-2.342007 -2.30261,-2.093285 -3.80137,2.331201 -6.8357,3.790301 -7.84982,5.861199 2.557,-2.98351 3.03354,-5.13484 -1.36064,-5.337878 z"
     style="fill:#2ca5fa;stroke:#000000;stroke-width:0;stroke-linecap:butt;stroke-linejoin:miter;stroke-miterlimit:4;stroke-dasharray:none;stroke-opacity:1;fill-opacity:1" />
  <path
     id="path4656"
     d="M 52.480469 11.015625 C 51.941839 11.020061 51.403042 11.05252 50.867188 11.111328 C 47.292054 11.503685 43.860247 13.101381 41.259766 15.585938 C 38.659284 18.070494 36.904481 21.426929 36.349609 24.980469 C 35.794738 28.534008 36.442858 32.262809 38.162109 35.421875 C 39.881361 38.580941 42.661931 41.151642 45.947266 42.615234 C 48.591571 43.793253 51.549369 44.257589 54.427734 43.949219 C 57.306099 43.640849 60.098847 42.559099 62.433594 40.847656 C 64.76834 39.136213 66.638504 36.800555 67.798828 34.148438 C 68.959152 31.49632 69.40572 28.534443 69.078125 25.658203 C 68.590091 21.373329 66.346008 17.31473 62.976562 14.623047 C 60.028298 12.267824 56.250874 10.984574 52.480469 11.015625 z M 52.947266 17.167969 C 54.870731 17.212705 56.780184 17.793009 58.396484 18.837891 C 60.243685 20.032041 61.697792 21.82478 62.484375 23.878906 C 63.239318 25.850405 63.377047 28.052981 62.875 30.103516 C 62.372953 32.154051 61.232688 34.043625 59.652344 35.443359 C 58.071999 36.843093 56.059049 37.747315 53.962891 37.998047 C 51.866733 38.248779 49.697926 37.844934 47.832031 36.857422 C 45.831975 35.798906 44.193128 34.072011 43.240234 32.019531 C 42.28734 29.967051 42.025643 27.601551 42.507812 25.390625 C 42.989982 23.179699 44.21264 21.137322 45.933594 19.667969 C 47.654547 18.198615 49.863871 17.311281 52.123047 17.181641 C 52.397543 17.165889 52.672485 17.161578 52.947266 17.167969 z "
     style="fill:#ffffff;stroke:#000000;stroke-width:0;stroke-linecap:butt;stroke-linejoin:miter;stroke-opacity:1;stroke-miterlimit:4;stroke-dasharray:none;fill-opacity:1" />
</svg>
